<?xml version="1.0" encoding="utf-8"?>
<!-- Generator: Adobe Illustrator 16.0.0, SVG Export Plug-In . SVG Version: 6.00 Build 0)  -->
<!DOCTYPE svg PUBLIC "-//W3C//DTD SVG 1.0//EN" "http://www.w3.org/TR/2001/REC-SVG-20010904/DTD/svg10.dtd">
<svg version="1.0" id="Layer_1" xmlns="http://www.w3.org/2000/svg" xmlns:xlink="http://www.w3.org/1999/xlink" x="0px" y="0px"
	 width="34px" height="34px" viewBox="0 0 34 34" style="enable-background:new 0 0 34 34;" xml:space="preserve">
<style type="text/css">
<![CDATA[
	.st0{fill:#E8EAED;}
	.st1{fill:#8C9499;}
	.st2{fill:#DADCE0;}
]]>
</style>
<g>
	<g>
		<circle class="st0" cx="17" cy="17" r="16.019"/>
		<path class="st2" d="M17,33.5C7.902,33.5,0.5,26.099,0.5,17C0.5,7.902,7.902,0.5,17,0.5c9.098,0,16.5,7.402,16.5,16.5
			C33.5,26.099,26.099,33.5,17,33.5z M17,1.463C8.433,1.463,1.463,8.433,1.463,17c0,8.567,6.97,15.537,15.538,15.537
			c8.566,0,15.536-6.97,15.536-15.537C32.536,8.433,25.566,1.463,17,1.463z"/>
	</g>
	<g>
		<g>
			<path class="st1" d="M10.526,18.537v-3.099h4.867v-4.867h3.121v4.867h4.867v3.099h-4.867v4.89h-3.121v-4.89H10.526z"/>
		</g>
	</g>
</g>
</svg>
