<?xml version="1.0" encoding="utf-8"?>
<!-- Generator: Adobe Illustrator 16.0.0, SVG Export Plug-In . SVG Version: 6.00 Build 0)  -->
<!DOCTYPE svg PUBLIC "-//W3C//DTD SVG 1.0//EN" "http://www.w3.org/TR/2001/REC-SVG-20010904/DTD/svg10.dtd">
<svg version="1.0" id="Layer_1" xmlns="http://www.w3.org/2000/svg" xmlns:xlink="http://www.w3.org/1999/xlink" x="0px" y="0px"
	 width="41.417px" height="34px" viewBox="0 0 41.417 34" style="enable-background:new 0 0 41.417 34;" xml:space="preserve">
<style type="text/css">
<![CDATA[
	.st0{fill:#B9BAF0;}
	.st1{fill:#BCBEC0;}
	.st2{fill:#F1F2F2;}
	.st3{fill:#FFFFFF;}
]]>
</style>
<g>
	<g>
		<g>
			<circle class="st0" cx="16.981" cy="17" r="16.018"/>
			<path class="st2" d="M16.981,33.5c-9.098,0-16.5-7.401-16.5-16.5c0-9.098,7.402-16.5,16.5-16.5c9.098,0,16.5,7.402,16.5,16.5
				C33.481,26.099,26.079,33.5,16.981,33.5z M16.981,1.463C8.415,1.463,1.445,8.433,1.445,17c0,8.567,6.97,15.537,15.537,15.537
				c8.566,0,15.537-6.97,15.537-15.537C32.519,8.433,25.548,1.463,16.981,1.463z"/>
		</g>
		<g>
			<g>
				<circle class="st3" cx="16.759" cy="14.33" r="6.367"/>
			</g>
			<g>
				<path class="st3" d="M16.981,33.019c3.356,0,6.471-1.037,9.043-2.802c0.092-0.357,0.146-0.725,0.146-1.101
					c0-3.515-4.113-6.364-9.189-6.364s-9.191,2.85-9.191,6.364c0,0.376,0.057,0.743,0.147,1.101
					C10.511,31.981,13.623,33.019,16.981,33.019z"/>
			</g>
		</g>
	</g>
	<g>
		<polygon class="st1" points="37.563,16.712 40.778,16.712 39.171,19.495 37.563,22.277 35.958,19.495 34.353,16.712 		"/>
	</g>
</g>
</svg>
