<?xml version="1.0" encoding="utf-8"?>
<!-- Generator: Adobe Illustrator 16.0.0, SVG Export Plug-In . SVG Version: 6.00 Build 0)  -->
<!DOCTYPE svg PUBLIC "-//W3C//DTD SVG 1.1//EN" "http://www.w3.org/Graphics/SVG/1.1/DTD/svg11.dtd">
<svg version="1.1" id="Layer_1" xmlns="http://www.w3.org/2000/svg" xmlns:xlink="http://www.w3.org/1999/xlink" x="0px" y="0px"
	 width="275.122px" height="153.207px" viewBox="0 0 275.122 153.207" enable-background="new 0 0 275.122 153.207"
	 xml:space="preserve">
<g>
	<path fill="#E2E2E2" d="M229.733,25.229c0-13.967-22.182-25.287-49.543-25.287c-27.359,0-49.541,11.32-49.541,25.287
		c0,12.074,16.574,22.162,38.738,24.68c-1.58,3.695-4.646,9.613-8.717,11.461c0,0,16.154-1.584,21.715-10.879
		C208.727,49.904,229.733,38.82,229.733,25.229z"/>
	<g>
		<path fill="#6D6E71" d="M161.319,16.332c2.213,0,4.064,0.738,5.555,2.215c1.49,1.475,2.232,3.293,2.232,5.451
			c0,2.139-0.74,3.951-2.229,5.441c-1.486,1.49-3.301,2.234-5.439,2.234c-2.166,0-3.994-0.742-5.484-2.225
			c-1.492-1.482-2.236-3.277-2.236-5.383c0-1.402,0.34-2.703,1.018-3.902c0.68-1.197,1.605-2.137,2.777-2.814
			C158.686,16.672,159.954,16.332,161.319,16.332z M161.383,17.752c-1.08,0-2.105,0.281-3.074,0.844
			c-0.967,0.564-1.723,1.322-2.268,2.277c-0.543,0.953-0.814,2.016-0.814,3.189c0,1.736,0.602,3.201,1.805,4.398
			c1.203,1.195,2.654,1.793,4.352,1.793c1.133,0,2.184-0.275,3.148-0.824c0.965-0.551,1.717-1.303,2.258-2.256
			c0.539-0.955,0.811-2.016,0.811-3.182c0-1.158-0.271-2.207-0.811-3.145c-0.541-0.938-1.303-1.688-2.283-2.252
			C163.524,18.033,162.483,17.752,161.383,17.752z"/>
		<path fill="#6D6E71" d="M176.924,20.225c1.664,0,3.043,0.602,4.139,1.807c0.994,1.1,1.49,2.4,1.49,3.902
			c0,1.51-0.525,2.83-1.576,3.957c-1.051,1.129-2.402,1.693-4.053,1.693c-1.658,0-3.014-0.564-4.064-1.693
			c-1.051-1.127-1.576-2.447-1.576-3.957c0-1.496,0.498-2.793,1.49-3.893C173.87,20.83,175.252,20.225,176.924,20.225z
			 M176.918,21.584c-1.156,0-2.148,0.428-2.98,1.281s-1.244,1.887-1.244,3.1c0,0.781,0.189,1.508,0.568,2.184
			s0.889,1.197,1.533,1.564c0.643,0.367,1.354,0.551,2.123,0.551c0.771,0,1.479-0.184,2.121-0.551
			c0.646-0.367,1.158-0.889,1.537-1.564s0.568-1.402,0.568-2.184c0-1.213-0.418-2.246-1.252-3.1
			C179.057,22.012,178.069,21.584,176.918,21.584z"/>
		<path fill="#6D6E71" d="M185.344,16.699h2.91c1.666,0,2.793,0.072,3.377,0.219c0.834,0.205,1.516,0.627,2.045,1.266
			c0.527,0.639,0.795,1.441,0.795,2.408c0,0.973-0.26,1.775-0.775,2.408s-1.229,1.057-2.135,1.275
			c-0.662,0.16-1.9,0.238-3.715,0.238h-1.041v6.793h-1.461V16.699z M186.805,18.129v4.955l2.473,0.029
			c0.996,0,1.73-0.09,2.193-0.271s0.828-0.477,1.094-0.883c0.264-0.406,0.396-0.859,0.396-1.363c0-0.488-0.133-0.936-0.396-1.342
			c-0.266-0.406-0.615-0.695-1.049-0.867s-1.145-0.258-2.129-0.258H186.805z"/>
		<path fill="#6D6E71" d="M202.592,21.684l-0.893,0.924c-0.744-0.721-1.471-1.082-2.18-1.082c-0.453,0-0.84,0.148-1.16,0.447
			c-0.322,0.297-0.484,0.645-0.484,1.043c0,0.35,0.133,0.684,0.398,1.002c0.266,0.324,0.822,0.705,1.672,1.143
			c1.035,0.535,1.738,1.053,2.107,1.549c0.367,0.502,0.551,1.068,0.551,1.697c0,0.889-0.312,1.639-0.936,2.254
			c-0.623,0.617-1.402,0.924-2.338,0.924c-0.623,0-1.219-0.135-1.785-0.406s-1.035-0.646-1.408-1.123l0.875-0.992
			c0.709,0.801,1.461,1.201,2.258,1.201c0.559,0,1.033-0.178,1.426-0.537c0.391-0.357,0.586-0.777,0.586-1.26
			c0-0.398-0.129-0.752-0.387-1.062c-0.26-0.305-0.844-0.689-1.752-1.152c-0.975-0.504-1.639-1-1.99-1.49
			c-0.352-0.488-0.529-1.049-0.529-1.678c0-0.82,0.281-1.502,0.842-2.045c0.559-0.543,1.268-0.814,2.123-0.814
			C200.584,20.225,201.584,20.711,202.592,21.684z"/>
		<path fill="#6D6E71" d="M206.504,29.121c0.34,0,0.627,0.119,0.865,0.357c0.236,0.238,0.357,0.531,0.357,0.875
			c0,0.338-0.121,0.627-0.357,0.869c-0.238,0.24-0.525,0.361-0.865,0.361c-0.336,0-0.625-0.121-0.863-0.361
			c-0.238-0.242-0.357-0.531-0.357-0.869c0-0.344,0.119-0.637,0.357-0.875S206.168,29.121,206.504,29.121z M207.211,16.332v11.32
			h-1.441v-11.32H207.211z"/>
	</g>
	<g>
		<g>
			<path fill="#404041" d="M137.183,132.037c0.931-0.809,1.814-1.666,2.648-2.57l0,0c0.377-0.463,0.744-0.875,1.086-1.232
				c3.592-4.279,6.176-9.439,7.354-15.107c-3.789-25.363-23.386-30.438-23.386-30.438v0.01c8.961,3.988,15.23,12.971,15.23,23.393
				c0,14.117-11.484,25.6-25.597,25.6c-14.061,0-25.512-11.408-25.595-25.449c0,0-1.5,23.854,23.306,29.527
				C114.569,136.253,128.515,138.8,137.183,132.037z"/>
			<g>
				<path fill="#404041" d="M97.417,136.912c0.372,0.258,0.762,0.506,1.14,0.758l0.576,0.383l0.589,0.352
					c1.924,1.162,3.979,2.182,6.129,3.018c11.098,0.457,19.738-0.836,26.441-2.957c-0.162,0.039-0.322,0.092-0.486,0.127
					c-1.643,0.445-3.342,0.723-5.053,0.924l-1.275,0.111c-0.432,0.045-0.842,0.035-1.258,0.062l-0.631,0.023
					c-0.195,0.01-0.449,0-0.67,0l-1.312-0.023c-1.715-0.092-3.416-0.27-5.086-0.58c-1.66-0.336-3.299-0.746-4.865-1.299
					c-3.158-1.1-6.076-2.629-8.629-4.461l-0.479-0.338l-0.46-0.355c-0.312-0.242-0.622-0.479-0.915-0.715
					c-0.583-0.508-1.176-0.99-1.706-1.518c-1.11-1.016-2.1-2.113-3.007-3.213c-1.794-2.205-3.242-4.488-4.302-6.705
					c-1.063-2.209-1.792-4.352-2.281-6.268c-0.104-0.482-0.237-0.949-0.323-1.398c-0.084-0.461-0.165-0.891-0.244-1.316
					c-0.075-0.418-0.115-0.83-0.17-1.213c-0.025-0.201-0.051-0.377-0.076-0.564c-0.013-0.184-0.025-0.371-0.039-0.547
					c-0.031-0.352-0.056-0.68-0.088-0.996c-0.015-0.303-0.015-0.566-0.023-0.83c-0.015-0.256-0.02-0.482-0.025-0.715
					c-0.013-0.215,0-0.482,0-0.688c0-0.227,0.006-0.422,0.006-0.594h0.028c0-0.045,0-0.092,0-0.141
					c0-14.113,11.484-25.596,25.603-25.596c3.686,0,7.195,0.795,10.367,2.209c0,0,0-0.006-0.008-0.006v-0.008
					c0,0,19.597,5.072,23.39,30.43c0.473-2.271,0.715-4.621,0.715-7.029c0-19.006-15.458-34.47-34.464-34.47
					c-19.015,0-34.482,15.464-34.482,34.47c0,0.021,0,0.055,0,0.074h0.051c0.009,0.223,0.024,0.514,0.056,0.885
					c0.011,0.223,0.014,0.428,0.05,0.734c0.036,0.303,0.068,0.641,0.108,1.012c0.032,0.348,0.077,0.744,0.122,1.156
					c0.069,0.385,0.136,0.797,0.21,1.24c0.034,0.225,0.075,0.445,0.105,0.672c0.062,0.232,0.102,0.467,0.146,0.703
					c0.109,0.48,0.208,0.982,0.336,1.504c0.134,0.52,0.279,1.051,0.431,1.609c0.15,0.553,0.355,1.111,0.531,1.705
					c0.787,2.338,1.888,4.891,3.396,7.5c1.509,2.605,3.458,5.23,5.818,7.709c1.18,1.223,2.453,2.439,3.856,3.543
					C95.948,135.855,96.684,136.367,97.417,136.912z"/>
			</g>
			<g>
				<path fill="#404041" d="M101.46,140.869c0.345,0.189,0.715,0.371,1.072,0.559C102.175,141.24,101.805,141.058,101.46,140.869z"
					/>
				<path fill="#404041" d="M153.739,123.416c0.135-0.221,0.25-0.436,0.375-0.668C153.989,122.98,153.874,123.195,153.739,123.416z"
					/>
				<path fill="#404041" d="M102.911,141.609c0.385,0.189,0.771,0.371,1.176,0.547C103.683,141.98,103.296,141.798,102.911,141.609z
					"/>
				<path fill="#404041" d="M157.499,114.414c-0.072,0.271-0.148,0.533-0.217,0.801c-0.146,0.508-0.32,1.006-0.482,1.533
					c-0.596,1.725-1.383,3.592-2.414,5.502c-0.006,0.029-2.5,7.576-12.674,13.559l0.412-0.275l-0.514,0.342l-0.533,0.312
					c-2.822,1.689-5.964,3.023-9.271,3.887c0.164-0.047,0.324-0.09,0.486-0.135c-6.703,2.121-15.344,3.416-26.436,2.957
					c1.391,0.547,2.818,1.02,4.271,1.408c1.859,0.498,3.768,0.83,5.684,1.064c1.924,0.209,3.865,0.264,5.795,0.209l1.432-0.08
					c0.229-0.012,0.439-0.021,0.684-0.053l0.744-0.076c0.48-0.064,0.99-0.1,1.459-0.18l1.42-0.236
					c1.873-0.363,3.725-0.824,5.498-1.434c3.566-1.236,6.873-2.941,9.769-4.994l0.537-0.387l0.523-0.396
					c0.346-0.27,0.709-0.523,1.037-0.801c0.66-0.574,1.328-1.107,1.938-1.699c1.258-1.152,2.377-2.369,3.414-3.605
					c2.037-2.486,3.678-5.061,4.887-7.566c1.223-2.506,2.062-4.918,2.625-7.096c0.129-0.545,0.283-1.07,0.379-1.584
					c0.059-0.309,0.107-0.584,0.174-0.881C157.915,114.496,157.702,114.47,157.499,114.414z"/>
				<path fill="#404041" d="M99.721,139.884c0.453,0.271,0.907,0.533,1.363,0.781C100.628,140.417,100.174,140.156,99.721,139.884z"
					/>
			</g>
			<path fill="#404041" d="M162.323,99.949c0,0-0.094-0.365-0.26-1.061c-0.076-0.342-0.184-0.766-0.291-1.271
				c-0.129-0.512-0.232-1.031-0.496-1.861c-0.246-0.766-0.506-1.623-0.805-2.547c-0.145-0.471-0.309-0.924-0.506-1.365
				c-0.193-0.459-0.389-0.926-0.592-1.41c-0.211-0.477-0.42-0.975-0.635-1.496c-0.266-0.484-0.525-0.988-0.793-1.516
				c-0.271-0.518-0.555-1.057-0.844-1.59c-0.283-0.547-0.654-1.066-0.982-1.609c-0.352-0.533-0.703-1.08-1.061-1.654
				c-0.369-0.543-0.793-1.07-1.213-1.615c-0.416-0.537-0.83-1.105-1.279-1.658c-0.475-0.525-0.953-1.057-1.436-1.59
				c-1.936-2.177-4.264-4.164-6.768-6.035c-0.652-0.432-1.303-0.871-1.969-1.309l-1.002-0.648l-1.051-0.594
				c-0.701-0.377-1.406-0.764-2.113-1.15c-0.73-0.344-1.492-0.654-2.228-0.982c-1.465-0.709-3.047-1.146-4.592-1.693
				c-0.775-0.236-1.582-0.396-2.375-0.598c-0.791-0.184-1.58-0.42-2.391-0.516l-2.416-0.355c-0.795-0.146-1.607-0.135-2.414-0.203
				l-1.197-0.072l-0.6-0.041l-0.244-0.006h-0.135h-0.283c-0.758,0.025-1.504,0.039-2.25,0.061c-3.273,0.154-6.297,0.674-9.184,1.449
				c-2.883,0.754-5.529,1.885-7.937,3.092c-2.412,1.199-4.509,2.641-6.366,4.045c-0.901,0.732-1.783,1.408-2.539,2.141
				c-0.39,0.363-0.772,0.707-1.135,1.053c-0.344,0.355-0.686,0.707-1.006,1.041c-0.662,0.668-1.222,1.337-1.739,1.96
				c-0.263,0.307-0.505,0.604-0.745,0.891c-0.212,0.291-0.424,0.58-0.62,0.844c-0.386,0.545-0.754,1.018-1.04,1.449
				c-0.281,0.432-0.516,0.801-0.706,1.102c-0.386,0.604-0.587,0.918-0.587,0.918s0.24-0.289,0.691-0.842
				c0.231-0.262,0.507-0.605,0.837-1.002c0.331-0.387,0.749-0.805,1.204-1.287c0.221-0.236,0.461-0.494,0.703-0.75
				c0.268-0.25,0.554-0.512,0.845-0.779c0.569-0.547,1.194-1.127,1.918-1.686c0.356-0.291,0.717-0.587,1.094-0.888
				c0.39-0.287,0.794-0.568,1.209-0.865c0.807-0.619,1.735-1.158,2.675-1.744c1.931-1.098,4.056-2.209,6.434-3.039
				c2.377-0.834,4.915-1.57,7.608-1.922c2.664-0.377,5.508-0.477,8.191-0.287c0.736,0.072,1.48,0.152,2.229,0.232l0.277,0.029
				l0.141,0.012c-0.16-0.012-0.027,0-0.051,0l0.029,0.008l0.064,0.016l0.518,0.092l1.043,0.197c0.686,0.154,1.391,0.221,2.062,0.426
				l2.031,0.584c0.68,0.162,1.324,0.445,1.979,0.688c0.646,0.258,1.309,0.473,1.938,0.762c1.244,0.633,2.51,1.139,3.66,1.885
				c0.582,0.357,1.162,0.682,1.732,1.045c0.543,0.398,1.078,0.791,1.617,1.178l0.801,0.574l0.746,0.643
				c0.49,0.417,0.98,0.839,1.46,1.257c1.83,1.785,3.496,3.586,4.797,5.498c0.33,0.473,0.65,0.939,0.965,1.396
				c0.287,0.479,0.562,0.951,0.838,1.42c0.266,0.467,0.551,0.91,0.783,1.367c0.217,0.479,0.438,0.939,0.645,1.383
				c0.213,0.457,0.441,0.881,0.613,1.328c0.172,0.443,0.328,0.875,0.482,1.299c0.16,0.426,0.311,0.828,0.463,1.234
				c0.107,0.41,0.217,0.807,0.326,1.184c0.105,0.387,0.207,0.756,0.309,1.113c0.115,0.365,0.203,0.703,0.234,1.004
				c0.121,0.619,0.223,1.188,0.318,1.691c0.105,0.451,0.162,1.094,0.217,1.604c0.061,0.514,0.111,0.945,0.15,1.293
				c0.062,0.719,0.109,1.096,0.109,1.096l0.025-0.01c0.537,2.75,2.955,4.824,5.865,4.824c3.301,0,5.971-2.666,5.971-5.971
				c0-0.297-0.029-0.584-0.074-0.875L162.323,99.949z"/>
			<path fill="#404041" d="M169.247,116.185c0.01-0.141,0.016-0.273,0.016-0.422c0-3.57-2.896-6.469-6.467-6.469
				c-3.023,0-5.559,2.072-6.266,4.889l-0.082-0.01c0,0-0.055,0.451-0.162,1.312c-0.115,0.828-0.262,2.252-0.559,3.35
				c-0.199,1.178-0.717,2.842-1.377,4.682c-0.732,1.807-1.654,3.848-3.012,5.916c-0.34,0.521-0.682,1.061-1.023,1.592
				c-0.408,0.51-0.814,1.031-1.227,1.561c-0.215,0.271-0.424,0.543-0.623,0.818c-0.236,0.248-0.48,0.498-0.727,0.754
				c-0.475,0.51-0.953,1.051-1.455,1.576c-2.113,2.021-4.578,3.967-7.402,5.672c-2.855,1.639-6.039,3.033-9.458,4.051
				c-0.869,0.215-1.74,0.432-2.615,0.662c-0.875,0.232-1.791,0.303-2.684,0.479l-1.359,0.221l-0.037,0.006
				c-0.125,0.008,0.113-0.006,0.07,0l-0.096,0.008l-0.189,0.02l-0.369,0.033l-0.744,0.061l-1.49,0.131l-1.344,0.033l-1.332,0.041
				l-1.396-0.041l-1.396-0.061l-1.385-0.135l-1.383-0.141l-1.369-0.217c-0.457-0.08-0.926-0.141-1.371-0.236l-1.355-0.303
				c-3.59-0.828-7.022-2.102-10.138-3.715c-3.115-1.609-5.926-3.557-8.327-5.658c-0.308-0.271-0.613-0.527-0.905-0.789
				c-0.28-0.277-0.559-0.539-0.837-0.82c-0.539-0.549-1.105-1.072-1.583-1.654c-0.484-0.551-1.023-1.111-1.433-1.641
				c-0.451-0.582-0.898-1.162-1.331-1.725c-1.572-2.227-2.838-4.451-3.781-6.492c-0.445-1.016-0.845-1.994-1.188-2.902
				c-0.29-0.916-0.601-1.752-0.812-2.535c-0.199-0.779-0.364-1.475-0.52-2.086c-0.138-0.609-0.206-1.141-0.289-1.559
				c-0.148-0.855-0.229-1.305-0.229-1.305s0.026,0.457,0.081,1.318c0.03,0.432,0.047,0.971,0.116,1.59
				c0.083,0.623,0.184,1.342,0.297,2.143c0.109,0.803,0.33,1.68,0.535,2.648c0.225,0.951,0.531,1.973,0.873,3.064
				c0.736,2.186,1.747,4.576,3.185,7.125c0.368,0.6,0.749,1.219,1.13,1.836c0.431,0.686,0.882,1.264,1.343,1.922
				c0.43,0.648,0.967,1.262,1.482,1.9c0.264,0.312,0.521,0.635,0.792,0.951c0.28,0.309,0.569,0.619,0.854,0.93
				c2.317,2.486,5.107,4.871,8.312,6.947c3.219,2.096,6.86,3.873,10.801,5.195l1.486,0.479c0.492,0.154,1.006,0.27,1.514,0.41
				l1.529,0.398c0.518,0.115,1.039,0.207,1.564,0.316l1.561,0.303l1.596,0.211l1.594,0.201l1.664,0.115l1.664,0.092l1.51,0.014
				l0.748,0.016l0.369,0.004h0.191h0.094l0.223-0.02l1.607-0.1c1.07-0.096,2.168-0.096,3.221-0.271
				c1.066-0.16,2.137-0.322,3.191-0.479c4.203-0.82,8.248-2.127,11.964-3.812c3.68-1.76,7.02-3.867,9.943-6.15
				c0.709-0.594,1.383-1.201,2.068-1.795c0.342-0.297,0.666-0.594,1-0.887c0.318-0.316,0.613-0.633,0.914-0.939
				c0.609-0.623,1.197-1.238,1.779-1.852c0.527-0.641,1.047-1.273,1.559-1.895c2.033-2.49,3.537-5.012,4.766-7.303
				c1.15-2.318,2.037-4.352,2.625-6.301c0.701-2,0.889-3.105,1.117-3.961c0.199-0.85,0.311-1.297,0.311-1.297L169.247,116.185z"/>
		</g>
		<g>
			<path fill="#404041" d="M37.528,149.291v-19.65h-38.28v-15.822l33.432-52.316h13.27c2.553,0,4.679,0.894,6.38,2.68
				c1.7,1.785,2.638,3.872,2.808,6.252v5.358v39.557h10.463v14.291H55.136v19.65H37.528z M37.783,115.859V77.068l-24.498,38.791
				H37.783z"/>
			<path fill="#404041" d="M183.592,121.474h17.098c0,4.936,1.188,8.592,3.574,10.973c2.551,2.553,6.125,3.828,10.719,3.828
				c4.76,0,8.248-1.188,10.461-3.572c2.553-2.209,3.828-5.527,3.828-9.953c0-4.252-1.447-7.568-4.338-9.953
				c-2.723-2.209-7.062-3.316-13.014-3.316c-0.172,0-0.385,0-0.639,0c-0.256,0-0.471,0-0.639,0c-0.342,0-0.766,0.086-1.275,0.254
				V97.486h1.787c5.27,0,9.186-1.021,11.738-3.064c2.551-2.041,3.828-5.104,3.828-9.186c0-3.23-1.109-5.955-3.318-8.167
				c-1.875-1.869-4.764-2.807-8.678-2.807c-4.254,0-7.316,1.107-9.188,3.318c-2.211,2.213-3.316,5.529-3.316,9.951v0.512h-9.188
				c-3.572,0-5.701-0.977-6.379-2.936c-0.682-1.953-0.766-4.039-0.256-6.252c1.188-4.593,3.484-8.421,6.891-11.484
				c5.443-4.934,12.842-7.402,22.203-7.402c9.016,0,16.16,2.214,21.436,6.637c5.443,4.426,8.166,10.207,8.166,17.353
				c0,3.916-0.936,7.318-2.807,10.209c-2.043,3.062-4.764,5.445-8.166,7.145c4.594,2.215,8.078,4.938,10.463,8.168
				c2.381,3.404,3.574,7.57,3.574,12.504c0,9.02-2.979,16.078-8.934,21.18c-5.785,4.938-13.869,7.402-24.242,7.402
				c-10.381,0-18.209-2.465-23.48-7.402c-5.273-4.76-7.91-11.904-7.91-21.434V121.474z"/>
			<path fill="#404041" d="M260.817,124.535l-3.062-53.846c0-2.553,0.893-4.722,2.678-6.507c1.787-1.786,3.957-2.68,6.508-2.68
				h8.934l-3.062,63.033H260.817z M264.643,131.681h10.975v17.609h-17.609v-10.975C258.008,133.894,260.217,131.681,264.643,131.681
				z"/>
		</g>
	</g>
</g>
</svg>
