<?xml version="1.0" encoding="utf-8"?>
<!-- Generator: Adobe Illustrator 16.0.0, SVG Export Plug-In . SVG Version: 6.00 Build 0)  -->
<!DOCTYPE svg PUBLIC "-//W3C//DTD SVG 1.1//EN" "http://www.w3.org/Graphics/SVG/1.1/DTD/svg11.dtd">
<svg version="1.1" id="Layer_1" xmlns="http://www.w3.org/2000/svg" xmlns:xlink="http://www.w3.org/1999/xlink" x="0px" y="0px"
	 width="275.122px" height="153.206px" viewBox="0 0 275.122 153.206" style="enable-background:new 0 0 275.122 153.206;"
	 xml:space="preserve">
<style type="text/css">
<![CDATA[
	.st0{fill:#E2E2E2;}
	.st1{fill:#6D6E71;}
	.st2{fill:#404041;}
]]>
</style>
<g>
	<g>
		<path class="st2" d="M137.935,132.097c0.933-0.81,1.814-1.666,2.649-2.57l0,0c0.377-0.463,0.743-0.875,1.085-1.232
			c3.592-4.279,6.177-9.44,7.354-15.107c-3.788-25.363-23.386-30.438-23.386-30.438v0.01c8.961,3.987,15.229,12.971,15.229,23.393
			c0,14.117-11.484,25.6-25.598,25.6c-14.061,0-25.512-11.408-25.595-25.449c0,0-1.5,23.854,23.307,29.526
			C115.321,136.312,129.267,138.86,137.935,132.097z"/>
		<g>
			<path class="st2" d="M98.169,136.972c0.372,0.257,0.762,0.506,1.14,0.757l0.576,0.383l0.589,0.352
				c1.924,1.162,3.979,2.182,6.129,3.018c11.099,0.457,19.738-0.836,26.441-2.957c-0.162,0.039-0.322,0.092-0.485,0.127
				c-1.644,0.445-3.343,0.723-5.054,0.924l-1.275,0.111c-0.432,0.045-0.841,0.035-1.258,0.062l-0.631,0.023
				c-0.195,0.01-0.448,0-0.67,0l-1.312-0.023c-1.714-0.092-3.416-0.27-5.085-0.58c-1.661-0.336-3.3-0.746-4.866-1.299
				c-3.157-1.099-6.076-2.629-8.629-4.46l-0.479-0.338l-0.46-0.356c-0.312-0.241-0.622-0.479-0.915-0.714
				c-0.583-0.508-1.176-0.991-1.706-1.518c-1.11-1.017-2.1-2.114-3.007-3.214c-1.794-2.204-3.242-4.487-4.302-6.704
				c-1.063-2.209-1.792-4.353-2.281-6.268c-0.104-0.482-0.237-0.95-0.323-1.398c-0.084-0.461-0.165-0.891-0.244-1.316
				c-0.075-0.419-0.115-0.83-0.17-1.213c-0.025-0.201-0.051-0.377-0.076-0.564c-0.013-0.185-0.025-0.371-0.039-0.547
				c-0.031-0.352-0.056-0.68-0.088-0.996c-0.015-0.303-0.015-0.567-0.023-0.83c-0.015-0.256-0.02-0.483-0.025-0.715
				c-0.013-0.215,0-0.482,0-0.688c0-0.228,0.006-0.423,0.006-0.594h0.028c0-0.046,0-0.092,0-0.141
				c0-14.113,11.484-25.596,25.603-25.596c3.686,0,7.195,0.795,10.367,2.208c0,0,0-0.005-0.007-0.005v-0.009
				c0,0,19.598,5.073,23.39,30.431c0.474-2.271,0.715-4.622,0.715-7.029c0-19.007-15.458-34.472-34.465-34.472
				c-19.015,0-34.481,15.465-34.481,34.472c0,0.021,0,0.055,0,0.074h0.051c0.009,0.223,0.024,0.513,0.056,0.885
				c0.011,0.222,0.014,0.428,0.05,0.734c0.036,0.303,0.068,0.641,0.108,1.011c0.032,0.349,0.077,0.745,0.122,1.157
				c0.069,0.384,0.136,0.796,0.21,1.239c0.034,0.225,0.075,0.446,0.105,0.673c0.062,0.232,0.102,0.467,0.146,0.703
				c0.109,0.479,0.208,0.982,0.336,1.504c0.134,0.519,0.279,1.051,0.431,1.609c0.15,0.553,0.355,1.111,0.531,1.705
				c0.787,2.338,1.888,4.89,3.396,7.499c1.509,2.606,3.458,5.23,5.818,7.71c1.18,1.223,2.453,2.438,3.856,3.542
				C96.7,135.915,97.437,136.427,98.169,136.972z"/>
		</g>
		<g>
			<path class="st2" d="M102.213,140.928c0.345,0.189,0.715,0.371,1.072,0.559C102.928,141.299,102.558,141.118,102.213,140.928z"/>
			<path class="st2" d="M154.491,123.476c0.135-0.221,0.25-0.437,0.376-0.668C154.741,123.039,154.626,123.255,154.491,123.476z"/>
			<path class="st2" d="M103.664,141.668c0.384,0.189,0.771,0.371,1.175,0.547C104.435,142.04,104.048,141.858,103.664,141.668z"/>
			<path class="st2" d="M158.251,114.474c-0.072,0.271-0.147,0.533-0.217,0.801c-0.146,0.508-0.32,1.005-0.482,1.532
				c-0.596,1.726-1.383,3.592-2.414,5.503c-0.005,0.029-2.5,7.576-12.673,13.559l0.411-0.275l-0.514,0.342l-0.533,0.312
				c-2.822,1.69-5.964,3.024-9.271,3.887c0.163-0.047,0.323-0.09,0.485-0.135c-6.703,2.121-15.343,3.416-26.436,2.957
				c1.392,0.547,2.819,1.02,4.272,1.408c1.859,0.498,3.767,0.83,5.683,1.064c1.924,0.209,3.865,0.264,5.795,0.209l1.432-0.08
				c0.229-0.012,0.439-0.021,0.685-0.053l0.743-0.076c0.481-0.064,0.99-0.1,1.459-0.18l1.42-0.236
				c1.874-0.363,3.726-0.824,5.498-1.434c3.566-1.236,6.874-2.941,9.77-4.994l0.537-0.387l0.523-0.396
				c0.346-0.269,0.709-0.524,1.037-0.8c0.661-0.574,1.328-1.107,1.938-1.7c1.257-1.151,2.376-2.369,3.413-3.605
				c2.038-2.485,3.678-5.06,4.887-7.565c1.224-2.506,2.062-4.918,2.626-7.096c0.128-0.545,0.282-1.07,0.378-1.584
				c0.059-0.309,0.107-0.584,0.174-0.881C158.668,114.555,158.454,114.529,158.251,114.474z"/>
			<path class="st2" d="M100.474,139.944c0.453,0.271,0.907,0.533,1.363,0.781C101.381,140.477,100.927,140.215,100.474,139.944z"/>
		</g>
		<path class="st2" d="M163.075,100.009c0,0-0.093-0.365-0.26-1.061c-0.076-0.342-0.184-0.766-0.291-1.271
			c-0.128-0.513-0.232-1.031-0.496-1.862c-0.246-0.765-0.506-1.623-0.805-2.546c-0.144-0.472-0.309-0.924-0.505-1.365
			c-0.194-0.459-0.39-0.926-0.593-1.41c-0.21-0.478-0.42-0.976-0.634-1.496c-0.266-0.485-0.526-0.989-0.794-1.516
			c-0.271-0.518-0.555-1.057-0.844-1.59c-0.282-0.547-0.654-1.066-0.982-1.609c-0.351-0.533-0.703-1.081-1.061-1.654
			c-0.368-0.544-0.793-1.07-1.212-1.615c-0.417-0.537-0.83-1.105-1.28-1.658c-0.475-0.525-0.952-1.058-1.436-1.59
			c-1.935-2.178-4.264-4.164-6.767-6.036c-0.653-0.432-1.304-0.87-1.97-1.308l-1.001-0.648l-1.052-0.594
			c-0.701-0.377-1.405-0.765-2.113-1.15c-0.73-0.344-1.492-0.654-2.229-0.982c-1.464-0.709-3.047-1.146-4.591-1.693
			c-0.776-0.236-1.583-0.397-2.375-0.599c-0.792-0.183-1.58-0.419-2.391-0.515l-2.417-0.355c-0.795-0.147-1.606-0.135-2.413-0.203
			l-1.198-0.073l-0.6-0.04l-0.244-0.006h-0.135h-0.283c-0.758,0.025-1.504,0.039-2.249,0.06c-3.274,0.155-6.298,0.675-9.185,1.45
			c-2.883,0.754-5.528,1.885-7.937,3.092c-2.412,1.198-4.509,2.641-6.366,4.045c-0.901,0.732-1.783,1.407-2.539,2.141
			c-0.39,0.363-0.772,0.706-1.135,1.052c-0.344,0.356-0.686,0.708-1.006,1.042c-0.662,0.668-1.222,1.337-1.739,1.961
			c-0.263,0.306-0.505,0.603-0.745,0.891c-0.212,0.291-0.424,0.579-0.62,0.844c-0.386,0.545-0.754,1.017-1.04,1.449
			c-0.281,0.432-0.516,0.801-0.706,1.102c-0.386,0.604-0.587,0.918-0.587,0.918s0.24-0.289,0.691-0.843
			c0.231-0.262,0.507-0.604,0.837-1.002c0.331-0.386,0.749-0.804,1.204-1.286c0.221-0.237,0.461-0.494,0.703-0.75
			c0.268-0.25,0.554-0.512,0.845-0.779c0.569-0.548,1.194-1.127,1.918-1.686c0.356-0.291,0.717-0.588,1.094-0.89
			c0.39-0.286,0.794-0.568,1.209-0.864c0.807-0.619,1.735-1.158,2.675-1.745c1.931-1.097,4.056-2.208,6.434-3.039
			c2.377-0.834,4.914-1.569,7.607-1.921c2.665-0.377,5.508-0.478,8.191-0.287c0.736,0.072,1.48,0.152,2.229,0.232l0.276,0.029
			l0.141,0.012c-0.16-0.012-0.027,0-0.051,0l0.03,0.008l0.063,0.016l0.518,0.092l1.043,0.196c0.686,0.155,1.391,0.222,2.063,0.426
			l2.03,0.585c0.681,0.162,1.325,0.445,1.979,0.688c0.647,0.257,1.309,0.473,1.938,0.761c1.243,0.634,2.509,1.14,3.659,1.886
			c0.582,0.357,1.162,0.682,1.733,1.045c0.542,0.398,1.077,0.79,1.616,1.178l0.801,0.574l0.746,0.643
			c0.49,0.417,0.98,0.84,1.462,1.258c1.83,1.785,3.495,3.585,4.796,5.498c0.33,0.473,0.651,0.938,0.966,1.396
			c0.286,0.478,0.562,0.95,0.837,1.42c0.266,0.467,0.552,0.91,0.783,1.367c0.218,0.479,0.438,0.939,0.645,1.383
			c0.213,0.457,0.442,0.881,0.613,1.328c0.172,0.443,0.328,0.875,0.482,1.299c0.16,0.426,0.311,0.828,0.464,1.234
			c0.106,0.41,0.216,0.807,0.325,1.184c0.105,0.387,0.208,0.756,0.309,1.113c0.115,0.365,0.203,0.702,0.235,1.004
			c0.12,0.619,0.223,1.187,0.318,1.69c0.105,0.452,0.161,1.095,0.216,1.604c0.061,0.513,0.111,0.945,0.15,1.293
			c0.062,0.718,0.109,1.095,0.109,1.095l0.025-0.009c0.537,2.75,2.956,4.823,5.866,4.823c3.3,0,5.97-2.666,5.97-5.97
			c0-0.297-0.028-0.584-0.073-0.875L163.075,100.009z"/>
		<path class="st2" d="M170,116.245c0.01-0.141,0.015-0.273,0.015-0.423c0-3.57-2.896-6.468-6.467-6.468
			c-3.023,0-5.559,2.072-6.265,4.889l-0.083-0.011c0,0-0.054,0.452-0.162,1.312c-0.114,0.829-0.262,2.253-0.559,3.351
			c-0.199,1.178-0.716,2.842-1.377,4.682c-0.731,1.806-1.654,3.848-3.012,5.916c-0.34,0.521-0.682,1.06-1.022,1.592
			c-0.409,0.51-0.815,1.031-1.228,1.561c-0.215,0.271-0.424,0.542-0.623,0.818c-0.236,0.248-0.479,0.498-0.726,0.754
			c-0.476,0.51-0.953,1.051-1.456,1.576c-2.112,2.021-4.578,3.966-7.402,5.671c-2.855,1.639-6.039,3.033-9.459,4.051
			c-0.869,0.215-1.74,0.432-2.615,0.662c-0.874,0.232-1.79,0.303-2.683,0.479l-1.36,0.221l-0.037,0.006
			c-0.124,0.008,0.113-0.006,0.071,0l-0.097,0.008l-0.188,0.02l-0.37,0.033l-0.744,0.061l-1.49,0.131l-1.344,0.033l-1.332,0.041
			l-1.396-0.041l-1.396-0.061l-1.385-0.135l-1.383-0.141l-1.369-0.217c-0.458-0.08-0.927-0.141-1.372-0.236l-1.355-0.303
			c-3.59-0.828-7.021-2.102-10.138-3.715c-3.115-1.609-5.926-3.557-8.327-5.658c-0.308-0.271-0.613-0.527-0.905-0.789
			c-0.28-0.277-0.559-0.539-0.837-0.821c-0.539-0.548-1.105-1.071-1.583-1.653c-0.484-0.551-1.023-1.111-1.433-1.641
			c-0.451-0.582-0.898-1.162-1.331-1.726c-1.572-2.226-2.838-4.45-3.781-6.491c-0.445-1.016-0.845-1.994-1.188-2.902
			c-0.29-0.916-0.601-1.752-0.812-2.535c-0.199-0.78-0.364-1.475-0.52-2.087c-0.138-0.608-0.206-1.141-0.289-1.558
			c-0.148-0.856-0.229-1.306-0.229-1.306s0.026,0.458,0.081,1.319c0.03,0.432,0.047,0.971,0.116,1.59
			c0.083,0.622,0.184,1.341,0.297,2.142c0.109,0.804,0.33,1.68,0.535,2.649c0.225,0.951,0.531,1.973,0.873,3.064
			c0.736,2.186,1.747,4.576,3.185,7.125c0.368,0.6,0.749,1.218,1.13,1.836c0.431,0.686,0.882,1.264,1.343,1.922
			c0.43,0.648,0.967,1.262,1.482,1.9c0.264,0.312,0.521,0.635,0.792,0.951c0.28,0.309,0.569,0.619,0.854,0.93
			c2.317,2.486,5.107,4.871,8.312,6.947c3.219,2.096,6.86,3.873,10.801,5.195l1.487,0.479c0.492,0.154,1.006,0.27,1.513,0.41
			l1.53,0.398c0.517,0.115,1.038,0.207,1.564,0.316l1.561,0.303l1.595,0.211l1.594,0.201l1.665,0.115l1.663,0.092l1.511,0.014
			l0.747,0.016l0.37,0.004h0.19h0.094l0.223-0.02l1.607-0.1c1.07-0.096,2.168-0.096,3.222-0.271c1.065-0.16,2.136-0.322,3.19-0.479
			c4.203-0.82,8.248-2.127,11.966-3.812c3.679-1.76,7.02-3.867,9.943-6.15c0.708-0.594,1.382-1.201,2.067-1.795
			c0.342-0.297,0.666-0.594,1.001-0.887c0.317-0.316,0.612-0.633,0.914-0.939c0.608-0.623,1.196-1.238,1.778-1.851
			c0.527-0.641,1.047-1.273,1.559-1.895c2.033-2.491,3.537-5.012,4.766-7.303c1.151-2.318,2.038-4.352,2.626-6.301
			c0.7-2,0.889-3.106,1.117-3.962c0.199-0.849,0.311-1.296,0.311-1.296L170,116.245z"/>
	</g>
	<g>
		<path class="st2" d="M38.894,150.625v-19.966H0v-16.076l33.967-53.154H47.45c2.593,0,4.752,0.908,6.482,2.723
			c1.726,1.814,2.678,3.934,2.853,6.353v5.445v40.19h10.631v14.52H56.785v19.966H38.894z M39.153,116.657V77.245l-24.893,39.412
			H39.153z"/>
		<path class="st2" d="M219.837,150.625v-19.966h-38.894v-16.076l33.967-53.154h13.483c2.593,0,4.752,0.908,6.482,2.723
			c1.726,1.814,2.678,3.934,2.853,6.353v5.445v40.19h10.631v14.52h-10.631v19.966H219.837z M220.097,116.657V77.245l-24.893,39.412
			H220.097z"/>
		<path class="st2" d="M260.083,125.474l-3.111-54.711c0-2.592,0.907-4.797,2.723-6.611c1.814-1.814,4.019-2.723,6.612-2.723h9.074
			l-3.111,64.045H260.083z M263.973,132.733h11.149v17.892h-17.891v-11.15C257.231,134.982,259.475,132.733,263.973,132.733z"/>
	</g>
	<path class="st0" d="M230.485,25.288C230.485,11.321,208.305,0,180.943,0c-27.36,0-49.541,11.321-49.541,25.288
		c0,12.072,16.574,22.16,38.738,24.678c-1.58,3.695-4.646,9.614-8.717,11.463c0,0,16.153-1.586,21.715-10.881
		C209.48,49.962,230.485,38.879,230.485,25.288z"/>
	<g>
		<path class="st1" d="M162.071,16.392c2.213,0,4.064,0.738,5.555,2.214s2.233,3.294,2.233,5.452c0,2.138-0.741,3.951-2.229,5.441
			c-1.486,1.489-3.301,2.234-5.439,2.234c-2.166,0-3.994-0.742-5.484-2.225c-1.492-1.482-2.236-3.277-2.236-5.383
			c0-1.402,0.34-2.703,1.018-3.902c0.68-1.197,1.605-2.137,2.777-2.814C159.438,16.73,160.706,16.392,162.071,16.392z
			 M162.136,17.812c-1.08,0-2.105,0.281-3.074,0.844c-0.967,0.564-1.723,1.322-2.268,2.276c-0.543,0.954-0.814,2.017-0.814,3.19
			c0,1.735,0.602,3.201,1.805,4.397s2.654,1.794,4.352,1.794c1.133,0,2.184-0.275,3.148-0.825s1.717-1.302,2.258-2.256
			c0.539-0.954,0.811-2.015,0.811-3.181c0-1.159-0.271-2.207-0.811-3.145c-0.541-0.938-1.303-1.688-2.283-2.252
			C164.276,18.093,163.235,17.812,162.136,17.812z"/>
		<path class="st1" d="M177.677,20.284c1.664,0,3.043,0.602,4.139,1.807c0.994,1.1,1.491,2.4,1.491,3.902
			c0,1.51-0.526,2.829-1.577,3.957c-1.051,1.129-2.402,1.693-4.053,1.693c-1.658,0-3.014-0.564-4.064-1.693
			c-1.051-1.128-1.576-2.447-1.576-3.957c0-1.496,0.498-2.793,1.491-3.893C174.622,20.89,176.005,20.284,177.677,20.284z
			 M177.671,21.644c-1.156,0-2.148,0.428-2.979,1.281c-0.832,0.854-1.245,1.887-1.245,3.099c0,0.781,0.189,1.509,0.568,2.185
			s0.889,1.196,1.533,1.564c0.644,0.367,1.354,0.551,2.123,0.551c0.771,0,1.479-0.184,2.122-0.551
			c0.646-0.368,1.157-0.889,1.536-1.564s0.568-1.403,0.568-2.185c0-1.212-0.418-2.245-1.252-3.099
			C179.811,22.071,178.821,21.644,177.671,21.644z"/>
		<path class="st1" d="M186.097,16.759h2.91c1.667,0,2.793,0.072,3.377,0.219c0.834,0.205,1.516,0.627,2.045,1.266
			c0.528,0.639,0.795,1.441,0.795,2.408c0,0.973-0.26,1.775-0.775,2.408c-0.516,0.632-1.229,1.057-2.135,1.275
			c-0.662,0.159-1.9,0.238-3.715,0.238h-1.041v6.793h-1.461V16.759z M187.558,18.188v4.955l2.473,0.029
			c0.997,0,1.73-0.09,2.193-0.271s0.828-0.477,1.094-0.883c0.264-0.406,0.396-0.86,0.396-1.363c0-0.488-0.133-0.936-0.396-1.342
			c-0.266-0.406-0.615-0.695-1.049-0.867s-1.144-0.258-2.129-0.258H187.558z"/>
		<path class="st1" d="M203.345,21.743l-0.893,0.924c-0.744-0.722-1.471-1.082-2.18-1.082c-0.453,0-0.84,0.148-1.16,0.446
			c-0.322,0.298-0.484,0.646-0.484,1.043c0,0.351,0.133,0.685,0.398,1.003c0.266,0.324,0.822,0.705,1.672,1.142
			c1.035,0.536,1.738,1.053,2.108,1.55c0.366,0.502,0.55,1.068,0.55,1.697c0,0.888-0.312,1.639-0.936,2.254
			c-0.623,0.616-1.402,0.924-2.338,0.924c-0.623,0-1.219-0.136-1.785-0.406c-0.566-0.271-1.035-0.646-1.407-1.123l0.874-0.992
			c0.71,0.801,1.462,1.201,2.259,1.201c0.558,0,1.032-0.179,1.425-0.537c0.391-0.357,0.586-0.777,0.586-1.26
			c0-0.398-0.129-0.752-0.387-1.062c-0.26-0.305-0.844-0.689-1.752-1.152c-0.975-0.504-1.639-1-1.99-1.49
			c-0.352-0.489-0.528-1.049-0.528-1.678c0-0.82,0.28-1.503,0.841-2.046c0.56-0.542,1.268-0.813,2.123-0.813
			C201.337,20.284,202.337,20.771,203.345,21.743z"/>
		<path class="st1" d="M207.258,29.181c0.339,0,0.626,0.119,0.864,0.357c0.237,0.238,0.357,0.53,0.357,0.875
			c0,0.337-0.12,0.627-0.357,0.868c-0.238,0.241-0.525,0.362-0.864,0.362c-0.337,0-0.626-0.121-0.864-0.362
			s-0.357-0.531-0.357-0.868c0-0.345,0.119-0.637,0.357-0.875S206.921,29.181,207.258,29.181z M207.964,16.392v11.32h-1.441v-11.32
			H207.964z"/>
	</g>
</g>
</svg>
